<svg xmlns="http://www.w3.org/2000/svg" width="512" viewBox="0 0 384 384" height="512" version="1.2"><defs><clipPath id="a"><path d="M192 0C85.96 0 0 85.96 0 192s85.96 192 192 192 192-85.96 192-192S298.04 0 192 0Zm0 0"/></clipPath></defs><g clip-path="url(#a)"><path style="fill:#e7000b;fill-opacity:1;stroke:none" d="M0 0h384v384H0z"/></g><g style="fill:#fff;fill-opacity:1"><path style="stroke:none" d="M191.531-118.172c12.551 4.117 22.504 10.992 29.86 20.625 7.363 9.625 11.047 21.578 11.047 35.86 0 19.699-7.575 34.906-22.72 45.624C194.57-5.351 172.493 0 143.485 0H30.516v-227.25H137c26.832 0 47.5 5.25 62 15.75 14.5 10.492 21.75 24.938 21.75 43.344 0 11.25-2.602 21.203-7.797 29.86-5.187 8.655-12.328 15.366-21.422 20.124ZM72.72-194.14v62.657h59.734c14.719 0 26.024-2.649 33.922-7.953 7.906-5.301 11.86-13.036 11.86-23.204 0-10.394-3.954-18.242-11.86-23.547-7.898-5.3-19.203-7.953-33.922-7.953ZM140.89-33.109c32.687 0 49.03-10.93 49.03-32.797 0-21.852-16.343-32.781-49.03-32.781H72.719v65.578Zm0 0" transform="translate(68.47 311.035)"/></g></svg>